<?xml version="1.0" encoding="UTF-8" standalone="no"?>
<!-- Created with Inkscape (http://www.inkscape.org/) -->

<svg
   xmlns:dc="http://purl.org/dc/elements/1.1/"
   xmlns:cc="http://creativecommons.org/ns#"
   xmlns:rdf="http://www.w3.org/1999/02/22-rdf-syntax-ns#"
   xmlns:svg="http://www.w3.org/2000/svg"
   xmlns="http://www.w3.org/2000/svg"
   xmlns:sodipodi="http://sodipodi.sourceforge.net/DTD/sodipodi-0.dtd"
   xmlns:inkscape="http://www.inkscape.org/namespaces/inkscape"
   width="1052.3622"
   height="744.09448"
   id="svg2"
   sodipodi:version="0.32"
   inkscape:version="0.47 r22583"
   version="1.0"
   sodipodi:docname="vuelvo a dibujar.svg"
   inkscape:output_extension="org.inkscape.output.svg.inkscape"
   inkscape:export-filename="C:\Documents and Settings\oscar\Escritorio\vuelvo a dibujar.png"
   inkscape:export-xdpi="121"
   inkscape:export-ydpi="121">
  <defs
     id="defs4">
    <inkscape:perspective
       sodipodi:type="inkscape:persp3d"
       inkscape:vp_x="0 : 526.18109 : 1"
       inkscape:vp_y="0 : 1000 : 0"
       inkscape:vp_z="744.09448 : 526.18109 : 1"
       inkscape:persp3d-origin="372.04724 : 350.78739 : 1"
       id="perspective10" />
    <inkscape:perspective
       id="perspective2390"
       inkscape:persp3d-origin="372.04724 : 350.78739 : 1"
       inkscape:vp_z="744.09448 : 526.18109 : 1"
       inkscape:vp_y="0 : 1000 : 0"
       inkscape:vp_x="0 : 526.18109 : 1"
       sodipodi:type="inkscape:persp3d" />
  </defs>
  <sodipodi:namedview
     id="base"
     pagecolor="#ffffff"
     bordercolor="#666666"
     borderopacity="1.0"
     inkscape:pageopacity="0.0"
     inkscape:pageshadow="2"
     inkscape:zoom="0.49497475"
     inkscape:cx="623.08038"
     inkscape:cy="348.74892"
     inkscape:document-units="px"
     inkscape:current-layer="layer2"
     showgrid="false"
     inkscape:window-width="1280"
     inkscape:window-height="975"
     inkscape:window-x="-4"
     inkscape:window-y="-4"
     inkscape:window-maximized="0" />
  <metadata
     id="metadata7">
    <rdf:RDF>
      <cc:Work
         rdf:about="">
        <dc:format>image/svg+xml</dc:format>
        <dc:type
           rdf:resource="http://purl.org/dc/dcmitype/StillImage" />
      </cc:Work>
    </rdf:RDF>
  </metadata>
  <g
     inkscape:label="Capa 1"
     inkscape:groupmode="layer"
     id="layer1" />
  <g
     inkscape:groupmode="layer"
     id="layer2"
     inkscape:label="2">
    <g
       id="g2849">
      <path
         sodipodi:nodetypes="ccss"
         id="path2397"
         d="M 878.32764,569.33809 C 878.32764,569.33809 897.01546,507.21371 871.76165,432.9675 C 858.72241,394.63214 831.14093,364.1065 807.51052,343.54581"
         style="fill:none;fill-rule:evenodd;stroke:#000000;stroke-width:5.002;stroke-linecap:butt;stroke-linejoin:miter;stroke-opacity:1;stroke-miterlimit:4;stroke-dasharray:none" />
      <path
         sodipodi:nodetypes="cccsscscsc"
         id="path2399"
         d="M 732.2433,544.31361 C 732.2433,544.31361 743.47227,509.73909 731.35044,482.46497 C 742.9672,452.1604 778.32254,439.53349 778.32254,439.53349 C 778.32254,439.53349 796.00021,434.48273 799.03066,427.91674 C 802.06112,421.35074 798.02051,398.11724 768.72609,396.09693 C 739.43166,394.07663 718.21846,429.43196 718.21846,429.43196 C 718.21846,429.43196 702.5611,450.14009 684.37835,455.19085 C 666.1956,460.24162 646.49763,452.66547 646.49763,452.66547 C 646.49763,452.66547 611.14229,503.67818 577.80726,467.81776 C 544.47222,431.95735 622.75904,381.95479 622.75904,381.95479"
         style="fill:none;fill-rule:evenodd;stroke:#000000;stroke-width:5.00199999999999980;stroke-linecap:round;stroke-linejoin:miter;stroke-opacity:1;stroke-miterlimit:4;stroke-dasharray:none" />
      <path
         sodipodi:nodetypes="cc"
         id="path2449"
         d="M 767.8026,371.07058 C 765.03525,384.2109 758.18069,398.0849 757.66921,397.5603"
         style="fill:none;fill-rule:evenodd;stroke:#000000;stroke-width:4.10144424;stroke-linecap:butt;stroke-linejoin:miter;stroke-miterlimit:4;stroke-dasharray:none;stroke-opacity:1" />
      <path
         id="path2401"
         d="M 592.45447,407.71368 C 592.45447,407.71368 587.49488,373.09788 599.52554,333.46747 C 616.69813,276.89893 660.13469,255.68573 660.13469,255.68573 C 660.13469,255.68573 613.66767,244.06897 611.14229,238.00806 C 608.61691,231.94714 667.71083,233.46237 667.71083,233.46237 C 667.71083,232.78571 621.41196,204.5751 624.77935,204.16795 C 642.99695,201.96527 679.22294,229.01813 675.79205,229.42176 C 678.97368,206.31833 628.82749,179.32387 658.61946,168.81261 C 680.74557,161.00602 700.72639,187.21448 705.59155,222.35069 C 715.40203,207.385 716.55962,186.8925 703.57125,164.26692 C 735.85239,184.90415 733.89369,213.26126 732.86567,235.98775 C 732.86567,235.98775 757.37565,205.44191 762.66518,209.72379 C 768.24468,214.2404 748.52304,244.06897 748.52304,244.06897 C 748.52304,244.06897 779.83776,233.46237 804.5865,248.10958 C 807.89152,261.404 773.45807,246.11439 758.62456,276.39385 C 758.62456,276.39385 770.06942,296.85586 772.84208,328.00875"
         style="fill:none;fill-rule:evenodd;stroke:#000000;stroke-width:5.00199999999999980;stroke-linecap:butt;stroke-linejoin:round;stroke-opacity:1;stroke-miterlimit:4;stroke-dasharray:none" />
      <path
         sodipodi:nodetypes="csssz"
         id="path2403"
         d="M 724.07016,334.06446 C 719.9767,312.0408 689.42911,312.25427 673.77175,321.34564 C 658.11438,330.43701 652.05347,353.16545 662.15499,369.83296 C 672.25652,386.50048 698.4831,379.88988 708.11693,371.85327 C 717.7547,363.81337 728.16362,356.08813 724.07016,334.06446 z"
         style="fill:none;fill-rule:evenodd;stroke:#000000;stroke-width:5.002;stroke-linecap:butt;stroke-linejoin:miter;stroke-opacity:1;stroke-miterlimit:4;stroke-dasharray:none" />
      <path
         sodipodi:nodetypes="cssc"
         id="path2405"
         d="M 663.16515,331.00337 C 663.15392,331.05952 649.49737,305.62498 621.74889,324.88118 C 598.91469,340.72709 616.66726,360.11309 630.33519,364.27713 C 643.41594,368.26228 652.9396,365.09521 658.14502,359.19573"
         style="fill:none;fill-rule:evenodd;stroke:#000000;stroke-width:5.002;stroke-linecap:butt;stroke-linejoin:miter;stroke-opacity:1;stroke-miterlimit:4;stroke-dasharray:none" />
      <path
         sodipodi:nodetypes="czzz"
         id="path2407"
         d="M 670.25553,366.08945 C 672.10267,372.42473 679.14449,376.59357 686.48708,371.04644 C 693.82967,365.49932 687.32737,358.23154 682.29768,357.34098 C 677.26799,356.45042 668.4084,359.75417 670.25553,366.08945 z"
         style="fill:none;fill-rule:evenodd;stroke:#000000;stroke-width:5.00199986;stroke-linecap:butt;stroke-linejoin:miter;stroke-miterlimit:4;stroke-dasharray:none;stroke-opacity:1" />
      <path
         sodipodi:nodetypes="czzz"
         id="path2409"
         d="M 642.91319,363.02909 C 649.18232,362.90198 650.01979,357.94735 647.67372,354.37689 C 645.32765,350.80643 638.50937,350.20368 636.35284,353.28998 C 634.19631,356.37628 636.64406,363.1562 642.91319,363.02909 z"
         style="fill:none;fill-rule:evenodd;stroke:#000000;stroke-width:5.00199986;stroke-linecap:butt;stroke-linejoin:miter;stroke-miterlimit:4;stroke-dasharray:none;stroke-opacity:1" />
      <path
         sodipodi:nodetypes="cscc"
         id="path2411"
         d="M 769.38436,335.33459 C 769.38436,335.33459 782.18458,307.80575 804.08143,319.32534 C 828.04047,331.92981 784.88853,370.84312 784.88853,370.84312 C 774.5162,380.70035 769.07227,381.60545 765.69563,380.94464"
         style="fill:none;fill-rule:evenodd;stroke:#000000;stroke-width:5.00199999999999980;stroke-linecap:round;stroke-linejoin:miter;stroke-opacity:1;stroke-miterlimit:4;stroke-dasharray:none" />
      <path
         sodipodi:nodetypes="cc"
         id="path2413"
         d="M 770.49081,350.90528 C 778.19593,342.06066 797.3081,322.14423 797.46788,341.51113"
         style="fill:none;fill-rule:evenodd;stroke:#000000;stroke-width:3.65362263;stroke-linecap:round;stroke-linejoin:round;stroke-miterlimit:4;stroke-dasharray:none;stroke-opacity:1" />
      <path
         id="path2415"
         d="M 619.72859,292.55629 C 619.72859,292.55629 604.07122,267.80756 589.42401,294.5766 C 574.7768,321.34564 596.49508,342.55885 596.49508,342.55885"
         style="fill:none;fill-rule:evenodd;stroke:#000000;stroke-width:5.002;stroke-linecap:butt;stroke-linejoin:miter;stroke-opacity:1;stroke-miterlimit:4;stroke-dasharray:none" />
      <path
         sodipodi:nodetypes="csc"
         id="path2417"
         d="M 731.85552,308.21366 C 731.85552,308.21366 738.07489,286.6687 715.85153,285.15347 C 693.62817,283.63824 681.312,303.01496 681.312,303.01496"
         style="fill:none;fill-rule:evenodd;stroke:#000000;stroke-width:8;stroke-linecap:butt;stroke-linejoin:miter;stroke-opacity:1;stroke-miterlimit:4;stroke-dasharray:none" />
      <path
         sodipodi:nodetypes="cs"
         id="path2419"
         d="M 665.12873,325.63043 C 664.38302,326.25201 631.23663,319.19107 634.18243,293.1645"
         style="fill:none;fill-rule:evenodd;stroke:#000000;stroke-width:8;stroke-linecap:butt;stroke-linejoin:miter;stroke-miterlimit:4;stroke-dasharray:none;stroke-opacity:1" />
      <path
         sodipodi:nodetypes="css"
         id="path2421"
         d="M 590.43416,381.44972 C 590.43416,381.44972 570.23111,371.34819 563.16004,406.19846 C 556.08898,441.04872 557.09913,485.49543 591.94939,499.63757"
         style="fill:none;fill-rule:evenodd;stroke:#000000;stroke-width:5.00199999999999980;stroke-linecap:round;stroke-linejoin:round;stroke-opacity:1;stroke-miterlimit:4;stroke-dasharray:none" />
      <path
         sodipodi:nodetypes="css"
         id="path2423"
         d="M 558.7285,445.00421 C 558.7285,445.00421 552.97674,460.61276 555.76834,486.69991 C 556.83659,496.68256 566.0153,510.31089 571.53076,515.47987"
         style="fill:none;fill-rule:evenodd;stroke:#000000;stroke-width:5.13864231;stroke-linecap:round;stroke-linejoin:miter;stroke-miterlimit:4;stroke-dasharray:none;stroke-opacity:1" />
      <path
         sodipodi:nodetypes="cs"
         id="path3223"
         d="M 645.71429,453.02305 C 645.71429,453.02305 658.21429,437.30876 664.64286,419.09448"
         style="fill:none;fill-rule:evenodd;stroke:#000000;stroke-width:3.9;stroke-linecap:round;stroke-linejoin:miter;stroke-opacity:1;stroke-miterlimit:4;stroke-dasharray:none" />
      <path
         sodipodi:nodetypes="cs"
         id="path3225"
         d="M 604.46429,318.02305 C 604.46429,318.02305 603.21429,306.23734 596.78572,303.73734"
         style="fill:none;fill-rule:evenodd;stroke:#000000;stroke-width:2.6;stroke-linecap:round;stroke-linejoin:miter;stroke-opacity:1;stroke-miterlimit:4;stroke-dasharray:none" />
      <path
         id="path3227"
         d="M 593.21208,241.79613 C 593.21208,241.79613 597.50523,232.95729 596.49508,225.12861 C 595.48493,217.29993 589.17147,213.00678 589.17147,213.00678 C 589.17147,213.00678 585.13086,218.31008 586.39355,226.64384 C 587.65624,234.9776 592.45447,241.54359 593.21208,241.79613 z"
         style="fill:none;fill-rule:evenodd;stroke:#000000;stroke-width:2.6;stroke-linecap:butt;stroke-linejoin:miter;stroke-opacity:1;stroke-miterlimit:4;stroke-dasharray:none" />
      <path
         sodipodi:nodetypes="cszsc"
         id="path3229"
         d="M 579.57502,244.57405 C 579.57502,244.57405 578.30126,234.33177 570.23111,222.35069 C 562.40637,210.73394 555.60746,206.21302 552.04837,207.45094 C 548.41806,208.71363 550.49311,218.05754 560.63466,229.16922 C 570.53221,240.01356 579.32249,244.82659 579.57502,244.57405 z"
         style="fill:none;fill-rule:evenodd;stroke:#000000;stroke-width:2.6;stroke-linecap:butt;stroke-linejoin:miter;stroke-opacity:1;stroke-miterlimit:4;stroke-dasharray:none" />
      <path
         id="path3231"
         d="M 576.03949,255.68573 C 576.03949,255.68573 564.92781,249.11973 563.16004,254.42304 C 561.39228,259.72634 572.75649,259.4738 576.03949,255.68573 z"
         style="fill:none;fill-rule:evenodd;stroke:#000000;stroke-width:2.6;stroke-linecap:butt;stroke-linejoin:miter;stroke-opacity:1;stroke-miterlimit:4;stroke-dasharray:none" />
      <path
         sodipodi:nodetypes="csczcsssscc"
         id="path3233"
         d="M 517.6419,505.18815 C 519.67673,498.74481 531.49364,498.5463 537.01513,495.82488 C 539.0873,494.80356 540.20926,491.91289 540.17907,491.80889 C 539.55552,470.47319 518.75386,467.50706 501.79327,473.62614 C 484.91183,479.71666 478.05469,498.37488 478.05469,498.37488 C 478.05469,498.37488 477.27719,492.71993 476.53946,486.50558 C 475.59885,478.58227 480.04936,466.64673 473.25647,462.26192 C 463.45251,455.93345 447.71867,461.51479 436.63844,473.3736 C 425.6419,485.14283 427.04199,506.20355 420.72854,513.52716 C 415.93531,519.08731 403.43339,529.48565 416.48397,537.29638 C 451.14242,549.07255 462.6897,512.54131 465.20588,485.53875"
         style="fill:none;fill-rule:evenodd;stroke:#000000;stroke-width:5.70000000000000020;stroke-linecap:butt;stroke-linejoin:round;stroke-opacity:1;stroke-miterlimit:4;stroke-dasharray:none" />
      <path
         sodipodi:nodetypes="csss"
         id="path3235"
         d="M 445.47727,465.79746 C 445.47727,465.79746 431.0826,448.11979 411.13209,466.30253 C 391.18157,484.48528 400.36395,496.04217 399.51533,509.23402 C 398.77673,520.71567 391.18867,524.27652 410.87955,527.92184"
         style="fill:none;fill-rule:evenodd;stroke:#000000;stroke-width:5.7;stroke-linecap:butt;stroke-linejoin:miter;stroke-opacity:1;stroke-miterlimit:4;stroke-dasharray:none" />
      <path
         sodipodi:nodetypes="csss"
         id="path3237"
         d="M 410.37447,466.55507 C 410.37447,466.55507 409.8694,452.41293 392.19173,459.98908 C 374.51406,467.56522 371.4836,491.05127 374.51406,503.42564 C 377.54451,515.80001 391.18157,521.35585 398.25264,515.54747"
         style="fill:none;fill-rule:evenodd;stroke:#000000;stroke-width:5.7;stroke-linecap:butt;stroke-linejoin:miter;stroke-opacity:1;stroke-miterlimit:4;stroke-dasharray:none" />
      <path
         sodipodi:nodetypes="csc"
         id="path3239"
         d="M 381.83766,467.56522 C 381.83766,467.56522 378.04959,452.1604 361.63461,453.92816 C 345.21963,455.69593 357.91307,476.87324 357.91307,476.87324"
         style="fill:none;fill-rule:evenodd;stroke:#000000;stroke-width:5.7;stroke-linecap:butt;stroke-linejoin:miter;stroke-opacity:1;stroke-miterlimit:4;stroke-dasharray:none" />
      <path
         sodipodi:nodetypes="cccccc"
         id="path3241"
         d="m 117.83612,431.1253 188.59245,37.2549 69.2522,12.40456 m 88.68728,15.8858 468.13195,83.85249 30.71429,6.07143"
         style="fill:none;fill-rule:evenodd;stroke:#000000;stroke-width:5.7;stroke-linecap:butt;stroke-linejoin:miter;stroke-opacity:1;stroke-miterlimit:4;stroke-dasharray:none" />
      <path
         sodipodi:nodetypes="cccsccsccscc"
         id="path3247"
         d="M 742.22834,646.49107 L 739.21375,650.23259 L 715.36561,645.81319 C 715.36561,645.81319 706.05474,645.60673 688.04302,649.81024 C 670.03129,654.01375 663.80774,654.37875 663.80774,654.37875 L 504.09241,611.60266 C 504.09241,611.60266 485.83309,604.73174 489.4945,586.64784 C 493.15591,568.56393 521.67899,573.44317 521.67899,573.44317 L 671.01939,609.63278 C 671.01939,609.63278 687.84194,623.7424 706.34496,631.28383 C 727.0981,639.74235 741.62811,642.05293 741.62811,642.05293 L 742.22834,646.49107 z"
         style="fill:none;fill-rule:evenodd;stroke:#000000;stroke-width:5;stroke-linecap:butt;stroke-linejoin:miter;stroke-miterlimit:4;stroke-dasharray:none;stroke-opacity:1" />
      <path
         sodipodi:nodetypes="cccc"
         id="path3249"
         d="M 663.7785,653.84383 C 663.7785,653.84383 646.08622,644.25937 660.88159,636.83372 C 651.14195,628.78182 657.13215,620.58555 661.93953,616.92489 C 663.09311,611.85438 670.10838,609.3249 670.10838,609.3249"
         style="fill:none;fill-rule:evenodd;stroke:#000000;stroke-width:5;stroke-linecap:butt;stroke-linejoin:miter;stroke-miterlimit:4;stroke-dasharray:none;stroke-opacity:1" />
      <path
         sodipodi:nodetypes="czccccs"
         id="path3253"
         d="M 523.47199,574.36944 C 523.47199,574.36944 512.08967,572.84427 502.09864,579.26735 C 491.85622,585.85205 498.30495,598.76768 498.30495,598.76768 L 658.77802,639.45165 C 674.46215,635.65634 712.17092,640.15214 736.79725,647.82783 L 738.76877,644.51689 C 738.76877,644.51689 710.58171,638.35589 661.716,617.20033"
         style="fill:none;fill-rule:evenodd;stroke:#000000;stroke-width:3.00000024;stroke-linecap:butt;stroke-linejoin:miter;stroke-miterlimit:4;stroke-dasharray:none;stroke-opacity:1" />
      <path
         id="path3263"
         d="M 719.24773,591.38504 L 741.03073,577.05954"
         style="fill:none;fill-rule:evenodd;stroke:#000000;stroke-width:8;stroke-linecap:round;stroke-linejoin:round;stroke-miterlimit:4;stroke-dasharray:none;stroke-opacity:1" />
      <path
         sodipodi:nodetypes="cc"
         style="fill:none;fill-rule:evenodd;stroke:#000000;stroke-width:8;stroke-linecap:round;stroke-linejoin:round;stroke-miterlimit:4;stroke-dasharray:none;stroke-opacity:1"
         d="M 667.57176,568.38567 L 678.02177,548.39572"
         id="path3265" />
      <path
         sodipodi:nodetypes="cc"
         id="path3267"
         d="M 604.91281,555.75147 L 608.79167,533.03975"
         style="fill:none;fill-rule:evenodd;stroke:#000000;stroke-width:8;stroke-linecap:round;stroke-linejoin:round;stroke-miterlimit:4;stroke-dasharray:none;stroke-opacity:1" />
      <path
         sodipodi:nodetypes="cc"
         style="fill:none;fill-rule:evenodd;stroke:#000000;stroke-width:8;stroke-linecap:round;stroke-linejoin:round;stroke-miterlimit:4;stroke-dasharray:none;stroke-opacity:1"
         d="M 541.89775,548.25765 L 537.2549,526.82908"
         id="path3269" />
      <path
         id="path3271"
         d="M 492.43742,550.36428 L 477.35769,534.44759"
         style="fill:none;fill-rule:evenodd;stroke:#000000;stroke-width:8;stroke-linecap:round;stroke-linejoin:round;stroke-miterlimit:4;stroke-dasharray:none;stroke-opacity:1"
         sodipodi:nodetypes="cc" />
      <path
         id="path3273"
         d="M 502.04582,257.70603 C 502.04582,257.70603 572.75649,148.10448 439.41636,112.74914 C 306.07622,77.393802 224.75894,139.01311 175.76654,201.64257 C 126.77414,264.27202 115.15739,387.51063 266.68027,384.98525 C 418.20315,382.45987 455.5788,303.66797 455.5788,303.66797 C 455.5788,303.66797 469.21586,349.62991 516.69303,312.75935 C 564.1702,275.88878 527.80471,257.20096 502.04582,257.70603 z"
         style="fill:none;fill-rule:evenodd;stroke:#000000;stroke-width:7.5;stroke-linecap:butt;stroke-linejoin:miter;stroke-opacity:1;stroke-miterlimit:4;stroke-dasharray:none" />
      <path
         style="fill:none;fill-rule:evenodd;stroke:#000000;stroke-width:5.13864231;stroke-linecap:round;stroke-linejoin:miter;stroke-miterlimit:4;stroke-dasharray:none;stroke-opacity:1"
         d="M 554.79993,463.93278 C 549.1706,468.09444 542.73301,475.90681 538.26834,482.41419"
         id="path3275"
         sodipodi:nodetypes="cs" />
    </g>
  </g>
</svg>
